<svg xmlns="http://www.w3.org/2000/svg" xmlns:xlink="http://www.w3.org/1999/xlink" width="500" zoomAndPan="magnify" viewBox="0 0 375 374.999991" height="500" preserveAspectRatio="xMidYMid meet" version="1.0"><defs><g/><clipPath id="56d36a0026"><path d="M 20.160156 166.308594 L 354.839844 166.308594 L 354.839844 206.523438 L 20.160156 206.523438 Z M 20.160156 166.308594 " clip-rule="nonzero"/></clipPath></defs><g fill="#d5417f" fill-opacity="1"><g transform="translate(31.85521, 259.53815)"><g><path d="M 149.628906 -60.207031 C 141.484375 -24.789062 121.652344 -5.136719 93.671875 -5.136719 C 58.433594 -5.136719 42.851562 -36.476562 42.851562 -74.546875 C 42.851562 -111.558594 57.902344 -141.484375 84.640625 -141.484375 C 104.652344 -141.484375 114.746094 -122.003906 118.816406 -96.152344 L 146.972656 -103.765625 C 134.753906 -129.265625 114.566406 -145.203125 84.640625 -145.203125 C 44.089844 -145.203125 10.625 -117.578125 10.625 -72.601562 C 10.625 -27.625 39.664062 3.542969 85.171875 3.542969 C 122.714844 3.542969 143.785156 -20.71875 152.992188 -60.207031 Z M 149.628906 -60.207031 "/></g></g></g><g fill="#d5417f" fill-opacity="1"><g transform="translate(183.072757, 259.53815)"><g><path d="M 149.628906 -60.207031 C 141.484375 -24.789062 121.652344 -5.136719 93.671875 -5.136719 C 58.433594 -5.136719 42.851562 -36.476562 42.851562 -74.546875 C 42.851562 -111.558594 57.902344 -141.484375 84.640625 -141.484375 C 104.652344 -141.484375 114.746094 -122.003906 118.816406 -96.152344 L 146.972656 -103.765625 C 134.753906 -129.265625 114.566406 -145.203125 84.640625 -145.203125 C 44.089844 -145.203125 10.625 -117.578125 10.625 -72.601562 C 10.625 -27.625 39.664062 3.542969 85.171875 3.542969 C 122.714844 3.542969 143.785156 -20.71875 152.992188 -60.207031 Z M 149.628906 -60.207031 "/></g></g></g><g clip-path="url(#56d36a0026)"><path fill="#fbfaf9" d="M 20.160156 166.308594 L 354.777344 166.308594 L 354.777344 207.8125 L 20.160156 207.8125 Z M 20.160156 166.308594 " fill-opacity="1" fill-rule="nonzero"/></g><g fill="#9a208c" fill-opacity="1"><g transform="translate(72.886032, 189.040608)"><g><path d="M 5.671875 0.15625 C 4.078125 0.15625 2.828125 -0.242188 1.921875 -1.046875 C 1.015625 -1.847656 0.5625 -2.945312 0.5625 -4.34375 C 0.5625 -5.738281 1.007812 -6.835938 1.90625 -7.640625 C 2.8125 -8.441406 4.046875 -8.84375 5.609375 -8.84375 C 6.804688 -8.84375 7.835938 -8.617188 8.703125 -8.171875 L 8.71875 -6.046875 L 8.625 -6.046875 C 8.195312 -7.566406 7.234375 -8.328125 5.734375 -8.328125 C 4.765625 -8.328125 3.992188 -7.972656 3.421875 -7.265625 C 2.859375 -6.554688 2.578125 -5.59375 2.578125 -4.375 C 2.578125 -3.15625 2.847656 -2.1875 3.390625 -1.46875 C 3.929688 -0.75 4.664062 -0.375 5.59375 -0.34375 C 6.550781 -0.34375 7.28125 -0.582031 7.78125 -1.0625 C 8.289062 -1.5625 8.644531 -2.414062 8.84375 -3.625 L 8.953125 -3.625 L 9.0625 -1.484375 C 8.394531 -0.378906 7.265625 0.164062 5.671875 0.15625 Z M 5.671875 0.15625 "/></g></g></g><g fill="#9a208c" fill-opacity="1"><g transform="translate(92.47072, 189.040608)"><g><path d="M 6.546875 -0.125 C 6.765625 -0.125 6.929688 -0.175781 7.046875 -0.28125 C 7.234375 -0.46875 7.332031 -0.671875 7.34375 -0.890625 L 7.34375 -4.046875 L 3.328125 -4.046875 L 3.328125 -0.90625 C 3.328125 -0.6875 3.40625 -0.5 3.5625 -0.34375 C 3.71875 -0.195312 3.90625 -0.125 4.125 -0.125 L 4.28125 -0.125 L 4.28125 0 L 0.515625 0 L 0.515625 -0.125 L 0.6875 -0.125 C 0.894531 -0.125 1.078125 -0.195312 1.234375 -0.34375 C 1.390625 -0.5 1.46875 -0.6875 1.46875 -0.90625 L 1.46875 -7.765625 C 1.46875 -7.984375 1.390625 -8.164062 1.234375 -8.3125 C 1.078125 -8.46875 0.894531 -8.546875 0.6875 -8.546875 L 0.515625 -8.546875 L 0.515625 -8.671875 L 4.28125 -8.671875 L 4.28125 -8.546875 L 4.125 -8.546875 C 3.90625 -8.546875 3.71875 -8.46875 3.5625 -8.3125 C 3.40625 -8.164062 3.328125 -7.984375 3.328125 -7.765625 L 3.328125 -4.578125 L 7.34375 -4.578125 L 7.34375 -7.765625 C 7.332031 -7.984375 7.25 -8.164062 7.09375 -8.3125 C 6.945312 -8.46875 6.765625 -8.546875 6.546875 -8.546875 L 6.390625 -8.546875 L 6.390625 -8.671875 L 10.15625 -8.671875 L 10.15625 -8.546875 L 10 -8.546875 C 9.78125 -8.546875 9.59375 -8.46875 9.4375 -8.3125 C 9.28125 -8.164062 9.203125 -7.984375 9.203125 -7.765625 L 9.203125 -0.90625 C 9.203125 -0.6875 9.28125 -0.5 9.4375 -0.34375 C 9.59375 -0.195312 9.78125 -0.125 10 -0.125 L 10.15625 -0.125 L 10.15625 0 L 6.390625 0 L 6.390625 -0.125 Z M 6.546875 -0.125 "/></g></g></g><g fill="#9a208c" fill-opacity="1"><g transform="translate(113.058734, 189.040608)"><g><path d="M 0.6875 -0.125 C 0.894531 -0.125 1.078125 -0.195312 1.234375 -0.34375 C 1.390625 -0.5 1.46875 -0.6875 1.46875 -0.90625 L 1.46875 -7.765625 C 1.46875 -7.984375 1.390625 -8.164062 1.234375 -8.3125 C 1.078125 -8.46875 0.894531 -8.546875 0.6875 -8.546875 L 0.515625 -8.546875 L 0.515625 -8.671875 L 4.28125 -8.671875 L 4.28125 -8.546875 L 4.125 -8.546875 C 3.90625 -8.546875 3.71875 -8.46875 3.5625 -8.3125 C 3.40625 -8.164062 3.328125 -7.984375 3.328125 -7.765625 L 3.328125 -0.53125 L 4.953125 -0.53125 C 5.554688 -0.53125 6.0625 -0.703125 6.46875 -1.046875 C 6.882812 -1.398438 7.191406 -1.894531 7.390625 -2.53125 L 7.515625 -2.53125 L 6.9375 0 L 0.515625 0 L 0.515625 -0.125 Z M 0.6875 -0.125 "/></g></g></g><g fill="#9a208c" fill-opacity="1"><g transform="translate(130.611984, 189.040608)"><g><path d="M 1.921875 -7.625 C 2.804688 -8.4375 3.992188 -8.84375 5.484375 -8.84375 C 6.972656 -8.84375 8.15625 -8.4375 9.03125 -7.625 C 9.914062 -6.820312 10.359375 -5.722656 10.359375 -4.328125 C 10.359375 -2.941406 9.914062 -1.84375 9.03125 -1.03125 C 8.15625 -0.226562 6.972656 0.171875 5.484375 0.171875 C 3.992188 0.171875 2.804688 -0.226562 1.921875 -1.03125 C 1.046875 -1.84375 0.609375 -2.941406 0.609375 -4.328125 C 0.609375 -5.722656 1.046875 -6.820312 1.921875 -7.625 Z M 3.390625 -1.40625 C 3.898438 -0.695312 4.59375 -0.34375 5.46875 -0.34375 C 6.351562 -0.34375 7.050781 -0.695312 7.5625 -1.40625 C 8.070312 -2.125 8.328125 -3.097656 8.328125 -4.328125 C 8.328125 -5.566406 8.070312 -6.539062 7.5625 -7.25 C 7.050781 -7.96875 6.351562 -8.328125 5.46875 -8.328125 C 4.59375 -8.328125 3.898438 -7.96875 3.390625 -7.25 C 2.890625 -6.539062 2.640625 -5.566406 2.640625 -4.328125 C 2.640625 -3.097656 2.890625 -2.125 3.390625 -1.40625 Z M 3.390625 -1.40625 "/></g></g></g><g fill="#9a208c" fill-opacity="1"><g transform="translate(151.410567, 189.040608)"><g><path d="M 0.6875 -0.125 C 0.894531 -0.125 1.078125 -0.195312 1.234375 -0.34375 C 1.390625 -0.5 1.46875 -0.6875 1.46875 -0.90625 L 1.46875 -7.8125 C 1.457031 -8.019531 1.394531 -8.175781 1.28125 -8.28125 C 1.082031 -8.457031 0.882812 -8.546875 0.6875 -8.546875 L 0.515625 -8.546875 L 0.515625 -8.671875 L 5.265625 -8.671875 C 5.671875 -8.671875 6.003906 -8.703125 6.265625 -8.765625 C 6.535156 -8.828125 6.695312 -8.867188 6.75 -8.890625 L 6.75 -6.734375 L 6.625 -6.734375 L 6.625 -6.875 C 6.625 -7.382812 6.4375 -7.75 6.0625 -7.96875 C 5.875 -8.070312 5.660156 -8.128906 5.421875 -8.140625 L 3.328125 -8.140625 L 3.328125 -4.53125 L 4.96875 -4.53125 C 5.269531 -4.539062 5.519531 -4.644531 5.71875 -4.84375 C 5.914062 -5.050781 6.015625 -5.300781 6.015625 -5.59375 L 6.015625 -5.71875 L 6.140625 -5.71875 L 6.140625 -2.84375 L 6.015625 -2.84375 L 6.015625 -2.953125 C 6.015625 -3.253906 5.914062 -3.503906 5.71875 -3.703125 C 5.53125 -3.898438 5.289062 -4.003906 5 -4.015625 L 3.328125 -4.015625 L 3.328125 -0.53125 L 4.953125 -0.53125 C 5.554688 -0.53125 6.0625 -0.703125 6.46875 -1.046875 C 6.882812 -1.398438 7.191406 -1.894531 7.390625 -2.53125 L 7.515625 -2.53125 L 6.9375 0 L 0.515625 0 L 0.515625 -0.125 Z M 0.6875 -0.125 "/></g></g></g><g fill="#9a208c" fill-opacity="1"><g transform="translate(169.149617, 189.040608)"><g><path d="M 0.5625 -7.125 C 0.945312 -7.269531 1.140625 -7.53125 1.140625 -7.90625 C 1.140625 -8.125 1.039062 -8.34375 0.84375 -8.5625 C 0.65625 -8.78125 0.5625 -9.019531 0.5625 -9.28125 C 0.5625 -9.550781 0.640625 -9.765625 0.796875 -9.921875 C 0.960938 -10.085938 1.15625 -10.171875 1.375 -10.171875 C 1.832031 -10.171875 2.144531 -9.972656 2.3125 -9.578125 C 2.425781 -9.328125 2.484375 -9.117188 2.484375 -8.953125 C 2.484375 -8.484375 2.382812 -8.097656 2.1875 -7.796875 C 1.832031 -7.242188 1.375 -6.96875 0.8125 -6.96875 C 0.726562 -6.96875 0.65625 -6.972656 0.59375 -6.984375 Z M 0.5625 -7.125 "/></g></g></g><g fill="#9a208c" fill-opacity="1"><g transform="translate(182.057808, 189.040608)"><g><path d="M 0.625 -1.15625 C 0.625 -1.75 0.75 -2.253906 1 -2.671875 L 1.109375 -2.671875 C 1.109375 -2.609375 1.109375 -2.546875 1.109375 -2.484375 C 1.109375 -1.910156 1.3125 -1.410156 1.71875 -0.984375 C 2.125 -0.554688 2.679688 -0.34375 3.390625 -0.34375 C 3.941406 -0.34375 4.375 -0.472656 4.6875 -0.734375 C 5 -1.003906 5.15625 -1.34375 5.15625 -1.75 C 5.15625 -1.988281 5.078125 -2.203125 4.921875 -2.390625 C 4.773438 -2.578125 4.519531 -2.785156 4.15625 -3.015625 L 2 -4.453125 C 1.207031 -4.984375 0.8125 -5.644531 0.8125 -6.4375 C 0.8125 -6.507812 0.816406 -6.585938 0.828125 -6.671875 C 0.878906 -7.328125 1.132812 -7.851562 1.59375 -8.25 C 2.050781 -8.644531 2.664062 -8.84375 3.4375 -8.84375 C 3.882812 -8.84375 4.445312 -8.800781 5.125 -8.71875 L 5.890625 -8.71875 L 5.734375 -6.90625 L 5.609375 -6.90625 C 5.609375 -7.332031 5.445312 -7.675781 5.125 -7.9375 C 4.8125 -8.195312 4.390625 -8.328125 3.859375 -8.328125 C 3.222656 -8.328125 2.757812 -8.128906 2.46875 -7.734375 C 2.320312 -7.546875 2.25 -7.351562 2.25 -7.15625 C 2.25 -6.96875 2.285156 -6.804688 2.359375 -6.671875 C 2.472656 -6.460938 2.722656 -6.234375 3.109375 -5.984375 L 5.484375 -4.453125 C 6.222656 -3.960938 6.59375 -3.328125 6.59375 -2.546875 C 6.59375 -1.671875 6.289062 -1 5.6875 -0.53125 C 5.09375 -0.0625 4.300781 0.171875 3.3125 0.171875 C 2.75 0.171875 2.226562 0.101562 1.75 -0.03125 C 1.28125 -0.164062 0.929688 -0.347656 0.703125 -0.578125 C 0.648438 -0.734375 0.625 -0.925781 0.625 -1.15625 Z M 0.625 -1.15625 "/></g></g></g><g fill="#9a208c" fill-opacity="1"><g transform="translate(199.140357, 189.040608)"><g/></g></g><g fill="#9a208c" fill-opacity="1"><g transform="translate(212.160035, 189.040608)"><g><path d="M 5.671875 0.15625 C 4.078125 0.15625 2.828125 -0.242188 1.921875 -1.046875 C 1.015625 -1.847656 0.5625 -2.945312 0.5625 -4.34375 C 0.5625 -5.738281 1.007812 -6.835938 1.90625 -7.640625 C 2.8125 -8.441406 4.046875 -8.84375 5.609375 -8.84375 C 6.804688 -8.84375 7.835938 -8.617188 8.703125 -8.171875 L 8.71875 -6.046875 L 8.625 -6.046875 C 8.195312 -7.566406 7.234375 -8.328125 5.734375 -8.328125 C 4.765625 -8.328125 3.992188 -7.972656 3.421875 -7.265625 C 2.859375 -6.554688 2.578125 -5.59375 2.578125 -4.375 C 2.578125 -3.15625 2.847656 -2.1875 3.390625 -1.46875 C 3.929688 -0.75 4.664062 -0.375 5.59375 -0.34375 C 6.550781 -0.34375 7.28125 -0.582031 7.78125 -1.0625 C 8.289062 -1.5625 8.644531 -2.414062 8.84375 -3.625 L 8.953125 -3.625 L 9.0625 -1.484375 C 8.394531 -0.378906 7.265625 0.164062 5.671875 0.15625 Z M 5.671875 0.15625 "/></g></g></g><g fill="#9a208c" fill-opacity="1"><g transform="translate(231.74472, 189.040608)"><g><path d="M 6.546875 -0.125 C 6.765625 -0.125 6.929688 -0.175781 7.046875 -0.28125 C 7.234375 -0.46875 7.332031 -0.671875 7.34375 -0.890625 L 7.34375 -4.046875 L 3.328125 -4.046875 L 3.328125 -0.90625 C 3.328125 -0.6875 3.40625 -0.5 3.5625 -0.34375 C 3.71875 -0.195312 3.90625 -0.125 4.125 -0.125 L 4.28125 -0.125 L 4.28125 0 L 0.515625 0 L 0.515625 -0.125 L 0.6875 -0.125 C 0.894531 -0.125 1.078125 -0.195312 1.234375 -0.34375 C 1.390625 -0.5 1.46875 -0.6875 1.46875 -0.90625 L 1.46875 -7.765625 C 1.46875 -7.984375 1.390625 -8.164062 1.234375 -8.3125 C 1.078125 -8.46875 0.894531 -8.546875 0.6875 -8.546875 L 0.515625 -8.546875 L 0.515625 -8.671875 L 4.28125 -8.671875 L 4.28125 -8.546875 L 4.125 -8.546875 C 3.90625 -8.546875 3.71875 -8.46875 3.5625 -8.3125 C 3.40625 -8.164062 3.328125 -7.984375 3.328125 -7.765625 L 3.328125 -4.578125 L 7.34375 -4.578125 L 7.34375 -7.765625 C 7.332031 -7.984375 7.25 -8.164062 7.09375 -8.3125 C 6.945312 -8.46875 6.765625 -8.546875 6.546875 -8.546875 L 6.390625 -8.546875 L 6.390625 -8.671875 L 10.15625 -8.671875 L 10.15625 -8.546875 L 10 -8.546875 C 9.78125 -8.546875 9.59375 -8.46875 9.4375 -8.3125 C 9.28125 -8.164062 9.203125 -7.984375 9.203125 -7.765625 L 9.203125 -0.90625 C 9.203125 -0.6875 9.28125 -0.5 9.4375 -0.34375 C 9.59375 -0.195312 9.78125 -0.125 10 -0.125 L 10.15625 -0.125 L 10.15625 0 L 6.390625 0 L 6.390625 -0.125 Z M 6.546875 -0.125 "/></g></g></g><g fill="#9a208c" fill-opacity="1"><g transform="translate(252.332732, 189.040608)"><g><path d="M 9.140625 -0.125 L 9.265625 -0.125 L 9.265625 0 L 5.3125 0 L 5.3125 -0.125 L 5.421875 -0.125 C 5.597656 -0.125 5.726562 -0.175781 5.8125 -0.28125 C 5.90625 -0.394531 5.953125 -0.5 5.953125 -0.59375 C 5.953125 -0.695312 5.929688 -0.800781 5.890625 -0.90625 L 5.28125 -2.421875 L 2.375 -2.421875 L 1.734375 -0.90625 C 1.691406 -0.800781 1.671875 -0.695312 1.671875 -0.59375 C 1.671875 -0.5 1.71875 -0.394531 1.8125 -0.28125 C 1.90625 -0.175781 2.039062 -0.125 2.21875 -0.125 L 2.3125 -0.125 L 2.3125 0 L -0.328125 0 L -0.328125 -0.125 L -0.21875 -0.125 C -0.03125 -0.125 0.15625 -0.179688 0.34375 -0.296875 C 0.539062 -0.410156 0.703125 -0.582031 0.828125 -0.8125 L 3.6875 -7.296875 C 4.070312 -8.117188 4.273438 -8.660156 4.296875 -8.921875 L 4.421875 -8.921875 L 8.09375 -0.84375 C 8.21875 -0.601562 8.375 -0.421875 8.5625 -0.296875 C 8.75 -0.179688 8.941406 -0.125 9.140625 -0.125 Z M 2.59375 -2.953125 L 5.078125 -2.953125 L 3.875 -6 Z M 2.59375 -2.953125 "/></g></g></g><g fill="#9a208c" fill-opacity="1"><g transform="translate(271.124673, 189.040608)"><g><path d="M 3.9375 -8.125 L 3.40625 -8.125 C 3.382812 -8.125 3.375 -8.125 3.375 -8.125 L 3.375 -0.90625 C 3.375 -0.6875 3.453125 -0.5 3.609375 -0.34375 C 3.765625 -0.195312 3.945312 -0.125 4.15625 -0.125 L 4.328125 -0.125 L 4.328125 0 L 0.5625 0 L 0.5625 -0.125 L 0.71875 -0.125 C 1.019531 -0.125 1.25 -0.253906 1.40625 -0.515625 C 1.46875 -0.628906 1.503906 -0.753906 1.515625 -0.890625 L 1.515625 -7.765625 C 1.503906 -7.984375 1.421875 -8.164062 1.265625 -8.3125 C 1.117188 -8.46875 0.9375 -8.546875 0.71875 -8.546875 L 0.5625 -8.546875 L 0.5625 -8.671875 L 4.8125 -8.671875 C 5.613281 -8.671875 6.289062 -8.5 6.84375 -8.15625 C 7.125 -7.976562 7.34375 -7.734375 7.5 -7.421875 C 7.664062 -7.117188 7.75 -6.71875 7.75 -6.21875 C 7.75 -5.71875 7.578125 -5.234375 7.234375 -4.765625 C 6.890625 -4.304688 6.382812 -4.046875 5.71875 -3.984375 C 6.195312 -3.816406 6.617188 -3.453125 6.984375 -2.890625 C 7.878906 -1.460938 8.539062 -0.609375 8.96875 -0.328125 C 9.1875 -0.203125 9.457031 -0.132812 9.78125 -0.125 L 9.78125 0 L 8.5625 0 C 7.84375 0 7.242188 -0.09375 6.765625 -0.28125 C 6.296875 -0.46875 5.925781 -0.800781 5.65625 -1.28125 C 5.5 -1.5625 5.15625 -2.269531 4.625 -3.40625 C 4.394531 -3.90625 4.113281 -4.179688 3.78125 -4.234375 L 3.78125 -4.359375 L 4.15625 -4.359375 C 4.53125 -4.359375 4.859375 -4.46875 5.140625 -4.6875 C 5.429688 -4.914062 5.625 -5.28125 5.71875 -5.78125 C 5.757812 -5.957031 5.78125 -6.09375 5.78125 -6.1875 C 5.78125 -6.875 5.640625 -7.363281 5.359375 -7.65625 C 5.085938 -7.957031 4.738281 -8.113281 4.3125 -8.125 C 4.226562 -8.125 4.101562 -8.125 3.9375 -8.125 Z M 3.9375 -8.125 "/></g></g></g><g fill="#9a208c" fill-opacity="1"><g transform="translate(290.300598, 189.040608)"><g><path d="M 11.734375 -0.125 L 11.9375 -0.125 L 11.9375 0 L 8.21875 0 L 8.21875 -0.109375 L 8.40625 -0.109375 C 8.539062 -0.117188 8.65625 -0.175781 8.75 -0.28125 C 8.851562 -0.394531 8.898438 -0.515625 8.890625 -0.640625 L 8.40625 -5.140625 L 6.078125 -1.125 C 5.765625 -0.613281 5.601562 -0.15625 5.59375 0.25 L 5.484375 0.25 L 2.296875 -5.109375 L 1.8125 -0.640625 C 1.789062 -0.515625 1.828125 -0.394531 1.921875 -0.28125 C 2.023438 -0.164062 2.148438 -0.109375 2.296875 -0.109375 L 2.484375 -0.109375 L 2.484375 0 L -0.109375 0 L -0.109375 -0.125 L 0.09375 -0.125 C 0.320312 -0.125 0.519531 -0.191406 0.6875 -0.328125 C 0.851562 -0.472656 0.953125 -0.664062 0.984375 -0.90625 L 2.015625 -8.84375 L 2.125 -8.84375 L 5.96875 -2.53125 L 9.671875 -8.84375 L 9.78125 -8.84375 L 10.828125 -0.90625 C 10.867188 -0.664062 10.972656 -0.472656 11.140625 -0.328125 C 11.316406 -0.191406 11.515625 -0.125 11.734375 -0.125 Z M 11.734375 -0.125 "/></g></g></g></svg>